<?xml version="1.0" encoding="UTF-8"?>
<svg width="364.58" height="372.08" enable-background="new 0 0 400 400" version="1.1" viewBox="0 0 364.5838 372.07571" xml:space="preserve" xmlns="http://www.w3.org/2000/svg">
<g transform="translate(-17.646 -14.003)">
	<path d="m142.9 24.2c-45.3 15.5-83.9 49.4-105.4 92.3-7.5 14.8-12.9 30.5-16.2 46.8-8.2 40.4-2.5 83.5 16.1 120.3 12.1 24 29.5 45.4 50.5 62.1 19.9 15.8 43 27.6 67.6 34.1 31 8.3 64 8.1 95.2 1 28.2-6.5 54.9-20 76.2-39.6 22.5-20.7 38.6-47.9 47.1-77.2 9.3-31.9 10.5-66 4.7-98.8h-175v72.6h101.4c-3.9 23.2-17.7 44.4-37.2 57.5-12.3 8.3-26.4 13.6-41 16.2-14.6 2.5-29.8 2.8-44.4-0.1-14.9-3-29-9.2-41.4-17.9-19.8-13.9-34.9-34.2-42.6-57.1-7.9-23.3-8-49.2 0-72.4 5.6-16.4 14.8-31.5 27-43.9 15-15.4 34.5-26.4 55.6-30.9 18-3.8 37-3.1 54.6 2.2 15 4.5 28.8 12.8 40.1 23.6l34.2-34.2c6-6.1 12.3-12 18.1-18.3-17.3-16-37.7-28.9-59.9-37.1-40-14.8-85-15.1-125.3-1.2z" fill="#fff"/>
		<path d="m142.9 24.2c59.736-20.913 130.39-9.4248 178.54 32.32 14.236 7.082-5.5065 15.483-10.313 23.039-11.76 11.793-23.56 23.561-35.33 35.341-32.83-32.33-87.39-36.966-126.46-13.44-23.79 13.74-42.09 36.43-50.84 62.44-20.305-15.8-40.658-31.54-61-47.3 21.419-42.871 60.023-76.885 105.4-92.4z" fill="#ea4335"/>
		<path d="m21.4 163.2c3.3039-16.222 8.7138-32.028 16.2-46.8 20.305 15.804 40.658 31.545 61 47.3-7.9841 23.248-8.0155 49.156 0 72.4-20.284 15.79-40.568 31.57-60.9 47.3-18.802-36.69-24.499-79.83-16.3-120.2z" fill="#fbbc05"/>
		<path d="m203.7 165.1h175c9.2582 52.583 0.64275 110.2-31.761 153.68-5.9657 8.0418-12.669 15.541-20.039 22.321l-59.1-45.9c19.489-13.079 33.317-34.336 37.2-57.5h-101.4c0.1-24.2 0.1-48.4 0.1-72.6z" fill="#4285f4"/>
		<path d="m37.5 283.5c20.332-15.725 40.616-31.513 60.9-47.3 14.075 43.251 56.185 76.179 101.98 77.06 23.549 0.58415 47.734-4.8483 67.419-18.16l59.1 45.9c-41.823 38.749-103.02 51.64-158.21 41.602-56.11-10.24-105.79-48.13-131.19-99.1z" fill="#34a853"/>
</g>
</svg>
